<?xml version="1.0" encoding="UTF-8"?>
<svg version="1.1" xmlns="http://www.w3.org/2000/svg" width="923" height="872">
<path d="M0 0 C1.7950779 -0.00330524 3.59015507 -0.00703218 5.38523132 -0.01114148 C10.29234266 -0.02109441 15.19944178 -0.02486737 20.10656178 -0.02753079 C25.40954228 -0.03145385 30.71251328 -0.04103061 36.01548767 -0.04974365 C48.80864041 -0.06945065 61.60179388 -0.07956643 74.39495799 -0.08847144 C80.43116079 -0.09286335 86.46736272 -0.09822777 92.50356483 -0.10346031 C112.58851152 -0.12046598 132.67345768 -0.13495834 152.75841045 -0.14220905 C157.96343677 -0.14411869 163.16846308 -0.14603906 168.37348938 -0.147995 C170.31382169 -0.14872061 170.31382169 -0.14872061 172.29335264 -0.14946087 C193.230507 -0.1577546 214.16760411 -0.1830834 235.10473349 -0.21557567 C256.63762154 -0.24871805 278.17048056 -0.26666424 299.70339423 -0.26985329 C311.77825813 -0.27201163 323.85303851 -0.28066087 335.92787743 -0.30631447 C346.21454163 -0.32811967 356.50110199 -0.33602385 366.78778668 -0.32634769 C372.02636273 -0.32183145 377.26472498 -0.32353155 382.5032711 -0.34310913 C415.88528097 -0.46079252 446.98979291 1.87568919 478.13496399 15.14717102 C479.214151 15.59286438 479.214151 15.59286438 480.31513977 16.04756165 C493.47517465 21.50869337 505.32577023 28.19721006 517.13496399 36.14717102 C518.13269836 36.80846008 519.13043274 37.46974915 520.15840149 38.15107727 C535.96307589 48.89526444 550.42663659 62.06144149 562.13496399 77.14717102 C562.84652649 77.9695929 563.55808899 78.79201477 564.29121399 79.63935852 C571.34590742 87.81187309 576.75545619 96.82746202 582.13496399 106.14717102 C582.53747375 106.8355304 582.93998352 107.52388977 583.35469055 108.23310852 C605.36586 146.23055973 608.59899813 187.19478529 608.58236289 230.06095052 C608.58381815 234.82059215 608.6025437 239.58017345 608.61895752 244.33978271 C608.64835641 253.62944275 608.66231015 262.91906239 608.67085996 272.20876247 C608.68148148 283.06815846 608.70805287 293.92749904 608.73520401 304.78686416 C608.78321108 324.19227214 608.81738694 343.59767924 608.84346008 363.00312805 C608.8686662 381.75152857 608.90301145 400.49988142 608.94795227 419.24824524 C608.9507165 420.40205397 608.95348073 421.55586271 608.95632872 422.74463534 C608.96047226 424.47261068 608.96047226 424.47261068 608.96469951 426.23549461 C608.97026283 428.55599848 608.97582316 430.87650235 608.98138046 433.19700623 C608.98549622 434.91439619 608.98549622 434.91439619 608.98969512 436.6664809 C609.03240944 454.64186558 609.06695762 472.61726717 609.10059558 490.5926708 C609.11278951 497.06286433 609.12609826 503.53305442 609.14023581 510.00324398 C609.16264106 520.2796704 609.18140212 530.5560903 609.19317475 540.83253485 C609.19859555 545.5153035 609.20551059 550.19805405 609.21716881 554.88081169 C609.25969275 572.47501339 609.20883189 590.05626592 608.70875549 607.64448547 C608.69030546 608.32452145 608.67185543 609.00455743 608.65284631 609.70520055 C607.6310188 646.17581496 601.82178496 679.89894304 584.13496399 712.14717102 C583.75082336 712.84825989 583.36668274 713.54934875 582.97090149 714.27168274 C577.45544888 724.21951319 571.39013861 733.39110867 564.13496399 742.14717102 C563.66832336 742.71532532 563.20168274 743.28347961 562.72090149 743.86885071 C557.24405664 750.50623019 551.56127645 756.90198929 545.50996399 763.02217102 C545.00094543 763.54045471 544.49192688 764.0587384 543.96748352 764.59272766 C540.38190902 768.14717102 540.38190902 768.14717102 538.13496399 768.14717102 C537.80496399 769.13717102 537.47496399 770.12717102 537.13496399 771.14717102 C534.35785559 773.74101846 531.18259262 775.88226668 528.13496399 778.14717102 C527.15012024 778.93092102 526.16527649 779.71467102 525.15058899 780.52217102 C517.04482442 786.86738572 508.37599234 792.04020367 499.38496399 797.02217102 C498.24881653 797.65252258 497.11266907 798.28287415 495.9420929 798.93232727 C448.81009484 824.67686893 398.03777168 824.32016698 345.69649029 824.27789569 C341.45911192 824.27559259 337.22173731 824.27914517 332.98435974 824.28187561 C324.7218802 824.2862812 316.45940984 824.28538016 308.19692996 824.28246297 C301.46872129 824.28018761 294.74051516 824.27990556 288.01230621 824.28098679 C287.04798769 824.28114002 286.08366918 824.28129325 285.09012888 824.28145113 C283.12996397 824.28177092 281.16979906 824.28209513 279.20963416 824.28242372 C260.90351252 824.28526341 242.59739592 824.28201563 224.29127511 824.27662335 C208.65453347 824.27215956 193.01779925 824.2729307 177.38105774 824.27754211 C159.13844008 824.28291966 140.89582683 824.28498588 122.65320849 824.28192985 C120.69976727 824.28161137 118.74632605 824.281297 116.79288483 824.28098679 C115.83224476 824.28083251 114.87160469 824.28067823 113.88185431 824.28051928 C107.18000129 824.27966342 100.47815111 824.2810968 93.77629852 824.28346634 C85.58249009 824.28630021 77.38869122 824.28545186 69.19488385 824.2801856 C65.03095255 824.27759575 60.86703704 824.27646102 56.70310593 824.27983475 C40.85586598 824.2915614 25.02409331 824.20381231 9.18397522 823.69377136 C7.32315524 823.63409673 7.32315524 823.63409673 5.42474294 823.57321656 C-12.49685043 822.93745696 -30.19153693 821.17554031 -47.86503601 818.14717102 C-49.03550476 817.95638977 -50.20597351 817.76560852 -51.41191101 817.56904602 C-68.58492295 814.36451269 -84.76391809 807.77638126 -99.86503601 799.14717102 C-101.16112339 798.49971138 -102.46079921 797.85939867 -103.76347351 797.22529602 C-108.02695693 795.11883794 -112.03442588 792.68492478 -116.05253601 790.14717102 C-116.73767273 789.7217804 -117.42280945 789.29638977 -118.12870789 788.85810852 C-121.90593907 786.48779598 -125.43313649 784.00708729 -128.86503601 781.14717102 C-129.65780945 780.51939758 -130.45058289 779.89162415 -131.26737976 779.24482727 C-141.88387753 770.72218422 -152.20206344 761.68434439 -160.86503601 751.14717102 C-161.82008006 750.04241171 -162.77589324 748.93831711 -163.73222351 747.83467102 C-201.57660363 703.68289422 -211.96891342 651.70299091 -212.45866632 595.34301209 C-212.48267179 592.67150199 -212.50993895 590.00004261 -212.53809738 587.32857323 C-213.07405943 536.02745155 -213.01705064 484.72211787 -212.99449894 433.41881298 C-212.99005443 423.12831055 -212.9908468 412.83781972 -212.9954071 402.5473175 C-213.01872649 347.98071083 -212.9949677 293.41323992 -212.59302902 238.84786034 C-212.55994818 234.32688791 -212.5329773 229.80594973 -212.51176834 225.28490639 C-212.48666338 220.0485266 -212.44728072 214.81244135 -212.3969903 209.57624459 C-212.38100611 207.69231482 -212.3696036 205.80833851 -212.3635993 203.9243505 C-212.18335264 153.16783735 -193.6456428 105.69853072 -159.04081726 68.51045227 C-157.35692119 66.68144487 -155.77767751 64.84622162 -154.24003601 62.89717102 C-151.0863486 59.24553297 -147.5527649 56.24682354 -143.86503601 53.14717102 C-142.51538757 51.98314758 -142.51538757 51.98314758 -141.13847351 50.79560852 C-134.01590707 44.72545296 -126.63459938 39.36387785 -118.86503601 34.14717102 C-118.11995789 33.61478821 -117.37487976 33.0824054 -116.60722351 32.53388977 C-83.15329173 8.93805576 -40.15511491 -0.00674395 0 0 Z M-42.86503601 49.14717102 C-43.83054382 49.34955383 -44.79605164 49.55193665 -45.79081726 49.76045227 C-59.68447012 52.82495216 -72.59170619 59.09618422 -84.86503601 66.14717102 C-85.71195007 66.61638977 -86.55886414 67.08560852 -87.43144226 67.56904602 C-105.51635781 77.90328348 -121.04456584 92.86786641 -133.86503601 109.14717102 C-134.5701532 110.03662415 -135.27527039 110.92607727 -136.00175476 111.84248352 C-168.56304852 154.7031256 -169.01656249 204.66327176 -169.02507877 256.01240504 C-169.02695869 260.90878687 -169.03451923 265.80516091 -169.04121399 270.70153809 C-169.05467197 281.35809226 -169.06080028 292.01464261 -169.06522465 302.67120385 C-169.06800464 309.3400704 -169.07224463 316.00893554 -169.07672882 322.67780113 C-169.0888978 341.1917693 -169.09920645 359.70573636 -169.10260391 378.21970844 C-169.10282348 379.39942744 -169.10304304 380.57914644 -169.10326926 381.79461451 C-169.10348754 382.97687824 -169.10370582 384.15914198 -169.10393071 385.3772319 C-169.10437415 387.77230601 -169.10482072 390.16738011 -169.10527039 392.56245422 C-169.10549182 393.75045103 -169.10571325 394.93844784 -169.10594139 396.16244455 C-169.10989435 415.43627057 -169.12737421 434.71005891 -169.15062991 453.98387036 C-169.17438766 473.83572422 -169.18680752 493.68755917 -169.18797183 513.53942746 C-169.18888532 524.66043392 -169.19455644 535.78139102 -169.21279144 546.9023838 C-169.22825132 556.36280097 -169.23327777 565.82315347 -169.22505334 575.28358088 C-169.2211696 580.10047075 -169.22196449 584.91723061 -169.23611069 589.73410416 C-169.37315876 639.32497791 -160.8088743 684.22447382 -125.87675476 721.94404602 C-123.86503601 724.14717102 -123.86503601 724.14717102 -121.49003601 727.20967102 C-117.42345493 731.7603689 -112.63374772 735.35930394 -107.86503601 739.14717102 C-107.04648132 739.83166321 -106.22792664 740.5161554 -105.38456726 741.22138977 C-77.78205601 764.14093011 -42.35713398 775.56763252 -6.86445618 776.69960022 C-4.9050179 776.76271051 -4.9050179 776.76271051 -2.90599501 776.82709575 C13.82902656 777.33100841 30.56898733 777.30441145 47.31003356 777.30721378 C52.18110419 777.30909957 57.05216707 777.31666243 61.92323303 777.323349 C72.5133696 777.33678136 83.1035023 777.34293053 93.69364595 777.34735966 C100.32232395 777.35014284 106.95100054 777.3543832 113.57967758 777.35886383 C131.9882962 777.37102707 150.39691372 777.38133835 168.80553627 777.38473892 C170.56337856 777.38506827 170.56337856 777.38506827 172.35673281 777.38540427 C173.53110971 777.38562255 174.70548661 777.38584083 175.91545069 777.38606572 C178.29444861 777.38650916 180.67344654 777.38695572 183.05244446 777.3874054 C184.23246034 777.38762683 185.41247623 777.38784826 186.62825017 777.38807639 C205.78610005 777.39203209 224.9439121 777.40952279 244.10174735 777.43276492 C263.84185179 777.45651795 283.58193722 777.46894224 303.32205617 777.47010684 C314.37757849 777.47102034 325.43305117 777.47669213 336.48855972 777.49492645 C345.88925421 777.51037961 355.28988364 777.51541651 364.69058843 777.50718835 C369.47700352 777.50330292 374.26328775 777.50410818 379.04968643 777.5182457 C405.74379072 777.74262593 405.74379072 777.74262593 432.13496399 774.14717102 C432.85810453 773.99295512 433.58124506 773.83873921 434.32629895 773.6798501 C456.64964703 768.86602756 476.56032647 759.30103503 495.13496399 746.14717102 C495.9148468 745.60189758 496.69472961 745.05662415 497.49824524 744.49482727 C504.95344276 739.10138778 511.72223769 732.72865328 518.13496399 726.14717102 C518.68023743 725.65861633 519.22551086 725.17006165 519.78730774 724.66670227 C546.30054475 700.10536001 561.38394752 659.52516683 564.13496399 624.14717102 C564.2991279 619.17952827 564.32009348 614.21205173 564.34028625 609.24214172 C564.34989406 607.72746919 564.35989746 606.21279912 564.37025928 604.69813156 C564.397406 600.53855563 564.41843358 596.37896852 564.43824911 592.21935201 C564.45606988 588.62508172 564.47725252 585.03083412 564.49838638 581.43658203 C564.56848024 569.49028596 564.62637811 557.5439426 564.68253279 545.59757423 C564.70239331 541.42373714 564.72317705 537.24990486 564.743972 533.07607234 C565.09892384 461.70575148 565.26903267 390.33506943 565.3136192 318.96390551 C565.31960321 309.97466341 565.33046136 300.98543531 565.34324646 291.99620056 C565.35870438 280.96855812 565.36648569 269.94094048 565.36471415 258.91328686 C565.36391647 253.25403101 565.36611774 247.59482228 565.37683487 241.93557549 C565.38654239 236.71690772 565.38662044 231.49832589 565.37943733 226.27965486 C565.37842736 224.39859903 565.38071465 222.51753754 565.38684285 220.63649142 C565.43481386 204.88742478 564.837143 188.9855952 560.94746399 173.64717102 C560.73388245 172.78390198 560.5203009 171.92063293 560.30024719 171.03120422 C551.64352821 137.38323411 532.72361649 104.82066854 505.13496399 83.14717102 C504.5850177 82.71195129 504.03507141 82.27673157 503.46846008 81.82832336 C481.20268572 64.31688901 455.99609851 52.56388462 428.13496399 47.14717102 C427.03599446 46.89785686 427.03599446 46.89785686 425.91482353 46.64350605 C415.02022855 44.44694016 403.9525467 44.79364051 392.88935852 44.73970032 C390.51351743 44.72132061 388.13768198 44.70220054 385.76185226 44.68240547 C379.94035099 44.63648378 374.11884659 44.60008377 368.29725131 44.56843023 C363.4687866 44.54200529 358.64036307 44.51141731 353.81193924 44.47838402 C290.50271664 44.04756568 227.19206894 43.95981222 163.88155746 43.96156502 C163.06586554 43.96158756 162.25017363 43.9616101 161.40976377 43.96163332 C156.45630937 43.96178258 156.45630937 43.96178258 151.50285497 43.96198164 C137.96760143 43.96240304 124.43237456 43.95257428 110.89712881 43.93872992 C96.70912572 43.92433874 82.52113579 43.91745921 68.33312523 43.9183237 C60.4793792 43.9186516 52.62566226 43.91607782 44.77192307 43.90514565 C38.17512268 43.89601052 31.57836512 43.89389525 24.98156111 43.90065507 C21.64051936 43.90388637 18.2996261 43.90297901 14.95858192 43.89530182 C-4.67821503 43.85310542 -23.72741489 44.46380287 -42.86503601 49.14717102 Z " fill="#1F557C" transform="translate(264.8650360107422,15.852828979492188)"/>
<path d="M0 0 C10.93496471 -0.02312297 21.86992366 -0.04091485 32.8049078 -0.05181217 C37.88191018 -0.0570411 42.95889589 -0.06413892 48.03588867 -0.07543945 C52.93120552 -0.08626799 57.82650629 -0.09227676 62.72183418 -0.09487724 C64.59382951 -0.09673155 66.46582391 -0.10035228 68.33781242 -0.10573006 C70.95040699 -0.11294004 73.56293427 -0.11399096 76.17553711 -0.11352539 C76.95740387 -0.11712067 77.73927063 -0.12071594 78.54483032 -0.12442017 C83.88594784 -0.11405216 83.88594784 -0.11405216 85 1 C85.10843739 2.72054276 85.14686614 4.44552972 85.15821838 6.16944885 C85.16799241 7.28756486 85.17776644 8.40568087 85.18783665 9.55767918 C85.19649203 11.42127032 85.19649203 11.42127032 85.20532227 13.32250977 C85.21535499 14.64095099 85.22538771 15.95939222 85.23572445 17.31778622 C85.26285178 20.89582584 85.28398716 24.47387781 85.30391693 28.05196381 C85.32349119 31.40506944 85.3484218 34.7581333 85.3729248 38.11120605 C85.44152195 47.92826775 85.50147881 57.74538829 85.5625 67.5625 C85.706875 89.486875 85.85125 111.41125 86 134 C165.2 134.33 244.4 134.66 326 135 C326.93726808 138.74907234 327.13259639 141.62830664 327.14526367 145.46508789 C327.15483345 147.43216454 327.15483345 147.43216454 327.16459656 149.4389801 C327.16612493 150.86687178 327.16723905 152.29476394 327.16796875 153.72265625 C327.17118277 155.18948906 327.17454696 156.65632155 327.17805481 158.12315369 C327.18403602 161.19384505 327.18589563 164.2645083 327.18530273 167.33520508 C327.18520091 171.27183086 327.19887839 175.20827711 327.21607494 179.14486027 C327.22718376 182.17228527 327.22922233 185.19966661 327.22869301 188.22710991 C327.22987384 189.67879292 327.23430141 191.13047703 327.24202538 192.58213997 C327.2518066 194.60950529 327.24768781 196.63692333 327.24291992 198.66430664 C327.24434494 199.8180629 327.24576996 200.97181915 327.24723816 202.16053772 C327 205 327 205 325 208 C322.67525619 208.37374616 322.67525619 208.37374616 319.69666958 208.3719368 C318.56468401 208.37852664 317.43269845 208.38511649 316.26641029 208.39190602 C315.01225085 208.38384962 313.7580914 208.37579321 312.46592712 208.36749268 C311.12847584 208.36951537 309.791026 208.37285279 308.45358092 208.37739825 C304.76582969 208.38608073 301.07832862 208.37594922 297.39059913 208.36285591 C293.41852068 208.35199254 289.44646626 208.3583653 285.47438049 208.36264038 C277.68841202 208.36828464 269.90254169 208.35793857 262.11658996 208.34235242 C253.05872235 208.32485103 244.00087403 208.32339397 234.94299216 208.32273683 C218.78741295 208.32104731 202.63187859 208.30521413 186.47631836 208.28125 C170.78197864 208.25798675 155.08766737 208.24382494 139.39331055 208.24023438 C138.42661483 208.24001161 137.45991911 208.23978884 136.46392959 208.23955932 C134.51664582 208.23911674 132.56936204 208.23867471 130.62207827 208.23823325 C129.66161047 208.23801369 128.70114267 208.23779412 127.71156979 208.2375679 C126.27462069 208.23724392 126.27462069 208.23724392 124.80864232 208.2369134 C109.87653529 208.23321639 94.94443288 208.22185673 80.0123309 208.2094375 C74.59092686 208.2049957 69.16952325 208.20156014 63.7481181 208.19881538 C55.15055701 208.19439077 46.55301295 208.1866453 37.95546263 208.17204097 C34.0242795 208.1654154 30.09311147 208.16036508 26.16192245 208.15958023 C22.56902877 208.15879733 18.97617335 208.15343045 15.38329155 208.14426073 C13.45548003 208.14053541 11.52766097 208.14173806 9.5998463 208.1430676 C8.47046849 208.13922645 7.34109067 208.13538531 6.17748928 208.13142776 C5.19471805 208.13018127 4.21194682 208.12893477 3.19939464 208.1276505 C1 208 1 208 0 207 C-0.09782976 204.33192067 -0.12994029 201.68973961 -0.12025452 199.02122498 C-0.12110894 198.17507521 -0.12196337 197.32892545 -0.12284368 196.45713478 C-0.12450108 193.59957601 -0.11897288 190.74207492 -0.11352539 187.88452148 C-0.11324355 185.84499106 -0.11340119 183.80546054 -0.1139679 181.76593018 C-0.11425599 176.21037264 -0.10835738 170.65483648 -0.10139394 165.09928393 C-0.09516234 159.30032632 -0.09455676 153.50136828 -0.09336853 147.70240784 C-0.09025464 136.71286173 -0.08204048 125.72332552 -0.07201904 114.73378378 C-0.06085969 102.22614015 -0.0553479 89.71849606 -0.05032361 77.21084869 C-0.03985791 51.47389363 -0.02225736 25.73694737 0 0 Z " fill="#62E2FE" transform="translate(305,465)"/>
<path d="M0 0 C17.9464889 15.12283558 29.16402575 34.75991971 32.58203125 58.17578125 C34.11324808 86.09032801 29.9455466 108.805174 11.26953125 130.23828125 C-6.16638017 148.99287505 -27.38612425 160.25664102 -53.3515625 161.4609375 C-79.31380477 162.15591148 -103.07339305 153.7848378 -122.296875 136.23046875 C-129.16773652 129.66977168 -133.73216902 121.89091625 -138.23046875 113.61328125 C-138.79084839 112.58714722 -138.79084839 112.58714722 -139.36254883 111.5402832 C-141.34788533 107.74320878 -142.84356115 104.02522174 -144.04174805 99.90649414 C-144.30231491 99.01724747 -144.56288177 98.12800079 -144.8313446 97.21180725 C-145.02493057 96.53991867 -145.21851654 95.86803009 -145.41796875 95.17578125 C-181.00271498 95.23478474 -216.58739454 95.30942811 -252.17206238 95.40476753 C-256.38228609 95.41603441 -260.59251012 95.42717307 -264.80273438 95.43823242 C-265.64084153 95.44043611 -266.47894869 95.44263979 -267.34245303 95.44491025 C-280.87630506 95.48019052 -294.41015705 95.50510682 -307.94403788 95.52612827 C-321.85236362 95.54796446 -335.76063017 95.58108834 -349.6689055 95.62448281 C-358.23679992 95.65086554 -366.80462075 95.66865912 -375.37255374 95.67512729 C-381.26435722 95.68042246 -387.15606845 95.69677582 -393.04782233 95.72144691 C-396.43663068 95.73532238 -399.82513619 95.74303433 -403.21399307 95.74078941 C-438.99829262 95.72458157 -467.94697401 101.07131412 -494.35546875 126.73828125 C-507.65467696 140.07169965 -516.33131937 155.04262111 -521.41796875 173.17578125 C-522.09489526 175.57462349 -522.78215741 177.97057674 -523.48046875 180.36328125 C-523.78082031 181.42933594 -524.08117187 182.49539063 -524.390625 183.59375 C-525.41796875 186.17578125 -525.41796875 186.17578125 -528.41796875 188.17578125 C-532.89854408 183.69520592 -531.58714815 174.35998125 -531.62109375 168.29296875 C-531.62679382 167.47563263 -531.6324939 166.65829651 -531.6383667 165.81619263 C-531.64774542 164.09687566 -531.654322 162.37754129 -531.65820312 160.65820312 C-531.66786759 158.07779179 -531.69894253 155.49819266 -531.73046875 152.91796875 C-531.91439079 124.57440908 -521.19898596 101.23328539 -502.41796875 80.17578125 C-501.88171875 79.55703125 -501.34546875 78.93828125 -500.79296875 78.30078125 C-477.63396898 53.2890615 -444.46401202 49.83756542 -412.41796875 48.17578125 C-403.29006625 47.85669837 -394.15900908 47.86455477 -385.02661133 47.85693359 C-382.4118215 47.8476037 -379.79703457 47.83743066 -377.18225098 47.82649231 C-371.61695193 47.80450889 -366.05167034 47.78932455 -360.48633766 47.77912521 C-352.44038825 47.76436936 -344.39449995 47.73878894 -336.348587 47.71079393 C-323.28603728 47.66562775 -310.2234786 47.62889033 -297.16088867 47.59765625 C-284.49225296 47.56734565 -271.82363898 47.53293934 -259.1550293 47.49316406 C-257.97833886 47.48947174 -257.97833886 47.48947174 -256.77787689 47.48570482 C-252.84140493 47.47332781 -248.90493322 47.46087174 -244.96846163 47.44837642 C-212.45166028 47.34526189 -179.934835 47.25591152 -147.41796875 47.17578125 C-146.88905029 46.10996826 -146.36013184 45.04415527 -145.81518555 43.94604492 C-145.10342823 42.51607577 -144.39159127 41.08614625 -143.6796875 39.65625 C-143.33321167 38.95753784 -142.98673584 38.25882568 -142.62976074 37.53894043 C-129.34800237 10.89072841 -110.84644366 -5.29323839 -82.6484375 -15.140625 C-54.41398084 -23.71772945 -23.17550325 -17.8941292 0 0 Z M-100.3828125 33.265625 C-105.12695303 39.00634647 -108.44483304 45.37360713 -111.41796875 52.17578125 C-111.93230469 53.34173828 -111.93230469 53.34173828 -112.45703125 54.53125 C-116.98925904 66.83603668 -115.27724236 81.31722281 -110.41796875 93.17578125 C-110.09054687 94.03300781 -109.763125 94.89023437 -109.42578125 95.7734375 C-103.64197923 109.09306917 -91.44391214 119.23224496 -78.41796875 124.98828125 C-62.9902139 130.98577163 -48.83273683 129.87733089 -33.51953125 124.078125 C-19.72193709 117.65810879 -9.62687488 106.61724543 -3.6796875 92.71875 C1.85517129 77.17659234 1.58310707 62.53017297 -4.87109375 47.2109375 C-7.49270144 42.06702545 -10.73584718 37.60717175 -14.41796875 33.17578125 C-15.19914063 32.20705078 -15.19914063 32.20705078 -15.99609375 31.21875 C-25.46197592 20.62939192 -40.24266197 15.12664236 -54.0546875 13.8359375 C-71.87075244 13.34594672 -88.15608882 20.26105806 -100.3828125 33.265625 Z " fill="#1D537A" transform="translate(720.41796875,338.82421875)"/>
<path d="M0 0 C1.11606093 -0.00260775 2.23212187 -0.00521549 3.38200283 -0.00790226 C5.24426557 -0.00455618 5.24426557 -0.00455618 7.14414978 -0.0011425 C8.45103539 -0.00270249 9.75792101 -0.00426248 11.10440922 -0.00586975 C14.74873149 -0.01006763 18.39302778 -0.00797032 22.03735018 -0.00488353 C25.96104393 -0.0026315 29.88473305 -0.00610805 33.8084259 -0.00886345 C41.50158454 -0.01332227 49.19473346 -0.01234419 56.88789248 -0.00945081 C63.13738507 -0.00719721 69.38687492 -0.00688406 75.6363678 -0.00797462 C76.52405918 -0.00812786 77.41175057 -0.00828109 78.32634169 -0.00843897 C80.12937443 -0.00875868 81.93240716 -0.00908289 83.7354399 -0.00941156 C100.66327078 -0.01226668 117.59109626 -0.00897883 134.51892626 -0.00361119 C149.06026324 0.00085688 163.60159224 0.00008095 178.14292908 -0.00452995 C195.00802842 -0.00987515 211.87312301 -0.01199198 228.73822308 -0.00891769 C230.53481738 -0.00859912 232.33141168 -0.00828475 234.12800598 -0.00797462 C235.01208557 -0.00782035 235.89616515 -0.00766607 236.80703503 -0.00750712 C243.0528001 -0.0066418 249.29856218 -0.00810516 255.54432678 -0.01045418 C263.15039899 -0.01325178 270.75646088 -0.01251477 278.3625319 -0.00717343 C282.24712966 -0.00453587 286.13171018 -0.00353227 290.01630783 -0.00682259 C294.2176284 -0.01032748 298.41890498 -0.00615749 302.620224 -0.0011425 C303.86173249 -0.00337322 305.10324099 -0.00560395 306.38237095 -0.00790226 C308.05646235 -0.00399064 308.05646235 -0.00399064 309.76437378 0 C311.22111716 0.00024353 311.22111716 0.00024353 312.7072897 0.00049198 C314.88218689 0.12584114 314.88218689 0.12584114 315.88218689 1.12584114 C315.98182609 3.3597132 316.01018484 5.59677973 316.01158142 7.83287239 C316.0142099 8.88406761 316.0142099 8.88406761 316.01689148 9.9564991 C316.02130955 12.28380463 316.01837218 14.61103478 316.01499939 16.93834114 C316.01567244 18.54877423 316.01664248 20.15920723 316.01789856 21.76963997 C316.01937547 25.14912569 316.0172212 28.52858504 316.01255798 31.9080677 C316.00686069 36.24960619 316.01013973 40.59108287 316.01613045 44.93261909 C316.01973624 48.25935015 316.01859739 51.58606644 316.01600266 54.91279793 C316.01533344 56.51405533 316.01616163 58.11531404 316.01848221 59.7165699 C316.02100905 61.95068625 316.01716774 64.18470114 316.01158142 66.41880989 C316.01038803 68.32956306 316.01038803 68.32956306 316.00917053 70.27891731 C315.88218689 73.12584114 315.88218689 73.12584114 314.88218689 74.12584114 C311.87371926 74.23627618 308.88771814 74.2808163 305.87838745 74.28405952 C304.92198177 74.2889975 303.9655761 74.29393548 302.98018843 74.29902309 C299.74952506 74.31447997 296.51888167 74.32278075 293.28819275 74.33116341 C290.98265403 74.34073551 288.67711709 74.35074518 286.37158203 74.36116219 C280.09086115 74.38828976 273.81013269 74.40925667 267.52938533 74.42916417 C260.9736776 74.45097547 254.41799344 74.47838783 247.86230469 74.50522041 C236.85193469 74.54969125 225.84155501 74.59034941 214.8311615 74.62852669 C203.48837847 74.66786597 192.14560621 74.70928841 180.80284119 74.75352669 C180.10414694 74.75625096 179.4054527 74.75897523 178.68558591 74.76178206 C175.18058374 74.77546128 171.67558172 74.7891816 168.17057979 74.80292237 C139.07447156 74.91693551 109.97833903 75.02366033 80.88218689 75.12584114 C80.87187943 76.36390007 80.86157196 77.601959 80.85095215 78.87753487 C80.75339943 90.51774544 80.65068305 102.15790037 80.54284763 113.79802036 C80.48756972 119.78300719 80.43414208 125.76799886 80.38487244 131.75303841 C80.33730053 137.52371887 80.2849606 143.29433782 80.22924614 149.06494522 C80.20878997 151.2718529 80.19008242 153.47877748 80.17311287 155.68571472 C80.14914081 158.7653473 80.11907679 161.8448624 80.08750916 164.92442513 C80.08175369 165.84655296 80.07599823 166.7686808 80.07006836 167.71875191 C79.99623905 174.01178898 79.99623905 174.01178898 78.88218689 175.12584114 C76.3065627 175.23155485 73.75761514 175.27262237 71.18125916 175.27110481 C69.97153946 175.27614273 69.97153946 175.27614273 68.73738098 175.28128242 C66.05776959 175.29082129 63.37822048 175.292737 60.69859314 175.29380989 C58.84393284 175.29702042 56.98927279 175.30038433 55.13461304 175.30389595 C51.24146436 175.30989457 47.34833791 175.3117351 43.45518494 175.31114388 C38.45680011 175.31104221 33.4585572 175.32469589 28.46020603 175.34191608 C24.62816712 175.35301296 20.79616276 175.3550638 16.96410942 175.35453415 C15.12084908 175.35571771 13.27758795 175.36016038 11.43434334 175.36786652 C8.86029637 175.37762 6.28656071 175.3748069 3.71250916 175.36876106 C2.5614846 175.37719032 2.5614846 175.37719032 1.38720703 175.38578987 C-3.88949757 175.35415668 -3.88949757 175.35415668 -6.11781311 173.12584114 C-6.36670208 170.19635105 -6.36670208 170.19635105 -6.36505127 166.36227608 C-6.36746569 165.65890179 -6.3698801 164.9555275 -6.37236768 164.23083884 C-6.37802565 161.86233185 -6.36932595 159.49409207 -6.36073303 157.125597 C-6.36180539 155.43236404 -6.36374337 153.73913143 -6.3664856 152.04590034 C-6.37134418 147.4386245 -6.36366594 142.83144511 -6.35353255 138.22418094 C-6.34476981 133.4119882 -6.34650914 128.59979865 -6.34689331 123.78759956 C-6.34595594 115.70623847 -6.33726172 107.62491486 -6.32362366 99.54356575 C-6.30789206 90.18682504 -6.30262569 80.83012538 -6.30335921 71.4733724 C-6.30396858 62.48829128 -6.29887184 53.5032236 -6.2905674 44.51814651 C-6.28702766 40.68680975 -6.28520317 36.85547773 -6.28467369 33.0241394 C-6.28367254 28.51721431 -6.27759473 24.01032398 -6.26750755 19.50341034 C-6.26457535 17.84450938 -6.26335863 16.18560442 -6.26393509 14.52670097 C-6.2644223 12.27190398 -6.25880464 10.01720585 -6.25152588 7.76242256 C-6.24985003 6.49755485 -6.24817419 5.23268713 -6.24644756 3.92949009 C-6.02921019 -0.8053016 -4.26228484 0.00071254 0 0 Z " fill="#63E2FE" transform="translate(310.11781311035156,181.87415885925293)"/>
<path d="M0 0 C17.9464889 15.12283558 29.16402575 34.75991971 32.58203125 58.17578125 C34.11324808 86.09032801 29.9455466 108.805174 11.26953125 130.23828125 C-6.16638017 148.99287505 -27.38612425 160.25664102 -53.3515625 161.4609375 C-79.31380477 162.15591148 -103.07339305 153.7848378 -122.296875 136.23046875 C-133.02899159 125.9828214 -144.6213102 107.80850976 -145.58203125 92.57421875 C-145.60184631 90.44079726 -145.52108263 88.30680152 -145.41796875 86.17578125 C-146.07796875 86.17578125 -146.73796875 86.17578125 -147.41796875 86.17578125 C-147.61877081 80.91476731 -147.76228385 75.65607681 -147.85742188 70.39208984 C-147.89715677 68.60946723 -147.95136789 66.82709641 -148.02148438 65.04541016 C-148.49904783 52.57959929 -147.0394347 43.68031341 -140.49653625 32.96533203 C-138.98123298 30.45115268 -137.60553995 27.86702277 -136.22091675 25.27922058 C-124.6313688 4.32286821 -103.1506827 -8.91242303 -80.71801758 -15.72705078 C-52.76455923 -23.24677487 -22.79469354 -17.60010071 0 0 Z M-100.3828125 33.265625 C-105.12695303 39.00634647 -108.44483304 45.37360713 -111.41796875 52.17578125 C-111.93230469 53.34173828 -111.93230469 53.34173828 -112.45703125 54.53125 C-116.98925904 66.83603668 -115.27724236 81.31722281 -110.41796875 93.17578125 C-110.09054687 94.03300781 -109.763125 94.89023437 -109.42578125 95.7734375 C-103.64197923 109.09306917 -91.44391214 119.23224496 -78.41796875 124.98828125 C-62.9902139 130.98577163 -48.83273683 129.87733089 -33.51953125 124.078125 C-19.72193709 117.65810879 -9.62687488 106.61724543 -3.6796875 92.71875 C1.85517129 77.17659234 1.58310707 62.53017297 -4.87109375 47.2109375 C-7.49270144 42.06702545 -10.73584718 37.60717175 -14.41796875 33.17578125 C-15.19914062 32.20705078 -15.19914062 32.20705078 -15.99609375 31.21875 C-25.46197592 20.62939192 -40.24266197 15.12664236 -54.0546875 13.8359375 C-71.87075244 13.34594672 -88.15608882 20.26105806 -100.3828125 33.265625 Z " fill="#66E2FE" transform="translate(720.41796875,338.82421875)"/>
<path d="M0 0 C3.13946463 2.32071936 5.88615516 4.70583571 8 8 C8.42288117 11.98373737 8.52858548 14.19808209 6.29403687 17.58811951 C5.49494904 18.38976028 4.69586121 19.19140106 3.87255859 20.01733398 C2.97097015 20.93775986 2.06938171 21.85818573 1.14047241 22.8065033 C0.14393754 23.78719066 -0.85342811 24.76703442 -1.8515625 25.74609375 C-2.86961773 26.76632634 -3.8865595 27.78767112 -4.9024353 28.81007385 C-7.03183813 30.94527426 -9.17308547 33.06759919 -11.32373047 35.18139648 C-14.07661655 37.88877443 -16.79943765 40.62422207 -19.51424599 43.36971951 C-21.60852078 45.48180724 -23.71710123 47.57912356 -25.83036423 49.67219734 C-26.84011105 50.67543785 -27.84558201 51.68300135 -28.84660721 52.69494438 C-30.24852958 54.1074202 -31.67195825 55.4984514 -33.09619141 56.88842773 C-33.9000528 57.68449936 -34.70391418 58.48057098 -35.53213501 59.30076599 C-38.59465192 61.40944411 -40.35331936 61.42691352 -44 61 C-45.95141602 59.83789062 -45.95141602 59.83789062 -47.69140625 58.15625 C-48.3683252 57.51558594 -49.04524414 56.87492187 -49.74267578 56.21484375 C-50.48759277 55.48394531 -51.23250977 54.75304687 -52 54 C-52.8544873 53.19691406 -53.70897461 52.39382813 -54.58935547 51.56640625 C-57.40362721 48.90851069 -60.17268969 46.20924586 -62.9375 43.5 C-63.41743408 43.04318848 -63.89736816 42.58637695 -64.3918457 42.11572266 C-65.80551356 40.76912228 -67.19798898 39.40038465 -68.58984375 38.03125 C-69.41347412 37.23267578 -70.23710449 36.43410156 -71.08569336 35.61132812 C-73.47760023 32.34849992 -73.89024414 30.01560102 -74 26 C-71.875 23.375 -71.875 23.375 -69 21 C-68.195625 20.071875 -67.39125 19.14375 -66.5625 18.1875 C-64 16 -64 16 -61.23828125 15.49609375 C-56.63915277 16.2117603 -54.70623024 18.55031453 -51.625 21.875 C-51.07972656 22.43058594 -50.53445313 22.98617188 -49.97265625 23.55859375 C-46 27.69055451 -46 27.69055451 -46 30 C-42.85842451 31.09484923 -42.85842451 31.09484923 -39 31 C-36.09319432 29.22723214 -33.9197149 26.82754906 -31.60546875 24.3515625 C-30.93203934 23.66444183 -30.25860992 22.97732117 -29.56477356 22.26937866 C-27.41941504 20.07267133 -25.30331105 17.85014597 -23.1875 15.625 C-21.04802606 13.41329032 -18.90300476 11.20709287 -16.75666809 9.00204468 C-15.42359589 7.62832447 -14.09570283 6.24955608 -12.77348328 4.86538696 C-11.87663567 3.92969376 -11.87663567 3.92969376 -10.96166992 2.97509766 C-10.43651291 2.42359039 -9.9113559 1.87208313 -9.37028503 1.30386353 C-6.23326402 -1.68109739 -4.00258986 -1.26007459 0 0 Z " fill="#2A5C81" transform="translate(700,381)"/>
<path d="M0 0 C0.66 0.33 1.32 0.66 2 1 C-17.63717319 22.72782281 -17.63717319 22.72782281 -23 25 C-19.49405766 16.7745199 -11.44135827 10.07420315 -4.69140625 4.4375 C-3.0380079 3.03230232 -1.51271002 1.55434424 0 0 Z " fill="#6E8EA4" transform="translate(124,66)"/>
<path d="M0 0 C4.70316712 0.63931941 6.5727613 3.04310706 9.6796875 6.44921875 C10.22496094 7.0215625 10.77023437 7.59390625 11.33203125 8.18359375 C12.67027762 9.59227414 13.98943725 11.01904372 15.3046875 12.44921875 C14.9746875 13.10921875 14.6446875 13.76921875 14.3046875 14.44921875 C13.48484375 13.57136719 12.665 12.69351562 11.8203125 11.7890625 C10.73244353 10.65430263 9.64386473 9.52022296 8.5546875 8.38671875 C8.01585937 7.80599609 7.47703125 7.22527344 6.921875 6.62695312 C5.15738753 4.7521487 5.15738753 4.7521487 2.3046875 2.44921875 C-1.72608588 2.88174027 -3.55779369 4.96930801 -6.3203125 7.82421875 C-7.09632813 8.61570312 -7.87234375 9.4071875 -8.671875 10.22265625 C-10.82131254 12.4767155 -10.82131254 12.4767155 -12.6953125 15.44921875 C-12.51310528 10.8029347 -12.24922464 8.97904776 -8.8203125 5.69921875 C-7.2734375 4.58546875 -7.2734375 4.58546875 -5.6953125 3.44921875 C-5.2003125 2.85109375 -4.7053125 2.25296875 -4.1953125 1.63671875 C-2.6953125 0.44921875 -2.6953125 0.44921875 0 0 Z " fill="#7D9BB0" transform="translate(638.6953125,396.55078125)"/>
<path d="M0 0 C0.66 0.33 1.32 0.66 2 1 C-3.61 6.61 -9.22 12.22 -15 18 C-15.66 17.67 -16.32 17.34 -17 17 C-11.6749489 10.87372593 -6.27309565 5.16205691 0 0 Z " fill="#487290" transform="translate(230,408)"/>
<path d="M0 0 C0.66 0.33 1.32 0.66 2 1 C0.44523615 2.77816682 -1.11816024 4.54727102 -2.6875 6.3125 C-3.55761719 7.29863281 -4.42773438 8.28476562 -5.32421875 9.30078125 C-7.77193721 11.76993958 -9.94430961 13.3868157 -13 15 C-11.38989473 10.92623969 -8.46177729 8.23492931 -5.375 5.25 C-4.859375 4.74339844 -4.34375 4.23679687 -3.8125 3.71484375 C-2.54616661 2.47196098 -1.2736856 1.23534724 0 0 Z " fill="#9CE5F5" transform="translate(603,342)"/>
</svg>
